<mxfile host="app.diagrams.net" modified="2023-02-19T19:00:05.678Z" agent="5.0 (Windows NT 10.0; Win64; x64) AppleWebKit/537.36 (KHTML, like Gecko) Chrome/109.0.0.0 Safari/537.36" etag="cSmtmxVYnFfJw9GKJcY4" version="20.8.15" type="github">
  <diagram name="Page-1" id="5f0bae14-7c28-e335-631c-24af17079c00">
    <mxGraphModel dx="412" dy="212" grid="1" gridSize="10" guides="1" tooltips="1" connect="1" arrows="1" fold="1" page="1" pageScale="1" pageWidth="1100" pageHeight="850" background="none" math="0" shadow="0">
      <root>
        <mxCell id="0" />
        <mxCell id="1" parent="0" />
        <mxCell id="rmD1IpT1VpXPIrw92LaJ-4" value="" style="group" vertex="1" connectable="0" parent="1">
          <mxGeometry x="320" y="140" width="120" height="45" as="geometry" />
        </mxCell>
        <mxCell id="rmD1IpT1VpXPIrw92LaJ-2" value="Join Logic" style="rounded=0;whiteSpace=wrap;html=1;" vertex="1" parent="rmD1IpT1VpXPIrw92LaJ-4">
          <mxGeometry y="25" width="120" height="20" as="geometry" />
        </mxCell>
        <mxCell id="rmD1IpT1VpXPIrw92LaJ-3" value="Join" style="rounded=0;whiteSpace=wrap;html=1;" vertex="1" parent="rmD1IpT1VpXPIrw92LaJ-4">
          <mxGeometry width="120" height="20" as="geometry" />
        </mxCell>
      </root>
    </mxGraphModel>
  </diagram>
</mxfile>
